<svg xmlns="http://www.w3.org/2000/svg" width="178" height="137" viewBox="0 0 178 137"><g><g><g><path fill="#f90" d="M120 77c0 33.137-26.863 60-60 60S0 110.137 0 77s26.863-60 60-60 60 26.863 60 60z"/></g><g><g/><g><path d="M89.13 15.49a.973.973 0 0 1 1.333-.359l57.049 33.041c.466.27.626.87.357 1.338a.973.973 0 0 1-1.332.359L89.488 16.828a.982.982 0 0 1-.357-1.338z"/></g><g><path d="M111.502 1.875a13.998 13.998 0 0 1 13.996 0l.002.001L171 27.881a14.006 14.006 0 0 1 7 12.113v52.012a14.004 14.004 0 0 1-7 12.113l-.004.002-45.496 26.003-.001.001a14.004 14.004 0 0 1-13.998 0l-.001-.001-45.496-26.003-.004-.002a14 14 0 0 1-7-12.113V39.994a14.005 14.005 0 0 1 7-12.113l.004-.002L111.5 1.876l.002-.001zM118.5 2c-2.106 0-4.176.555-6 1.608l-.004.003L67 29.614h-.002A12.002 12.002 0 0 0 61 39.996v52.01a12.005 12.005 0 0 0 5.998 10.38l.002.001 45.5 26.006a12.003 12.003 0 0 0 12 0l.004-.003L170 102.386l.002-.001A12.004 12.004 0 0 0 176 92.005v-52.01a12.004 12.004 0 0 0-5.998-10.38l-.002-.001L124.504 3.61l-.004-.003a11.998 11.998 0 0 0-6-1.608z"/></g><g><path d="M61.133 33.488a.993.993 0 0 1 1.349-.357L118 64.896l55.518-31.765a.993.993 0 0 1 1.349.357.97.97 0 0 1-.36 1.334l-56.013 32.047a.997.997 0 0 1-.988 0L61.493 34.822a.97.97 0 0 1-.36-1.334z"/></g><g><path d="M118 65c.552 0 1 .438 1 .977v64.046c0 .54-.448.977-1 .977s-1-.438-1-.978V65.978c0-.54.448-.977 1-.977z"/></g></g></g></g></svg>