<svg xmlns="http://www.w3.org/2000/svg" width="60" height="60" viewBox="0 0 60 60"><g><g><g/><g><path fill="#7c7c7c" d="M24.258 30a5.742 5.742 0 1 0 11.484 0 5.742 5.742 0 0 0-11.484 0z"/></g><g><path fill="#7c7c7c" d="M16.571 19.84a5.338 5.338 0 0 1 1.289-1.98 5.333 5.333 0 0 1 1.98-1.29c.607-.235 1.52-.515 3.199-.592 1.817-.083 2.361-.1 6.961-.1s5.145.017 6.961.1c1.68.077 2.592.357 3.199.593a5.33 5.33 0 0 1 1.98 1.289 5.34 5.34 0 0 1 1.29 1.98c.235.607.516 1.52.592 3.2.083 1.816.1 2.36.1 6.96s-.017 5.145-.1 6.962c-.076 1.68-.357 2.59-.593 3.198a5.339 5.339 0 0 1-1.288 1.98 5.333 5.333 0 0 1-1.98 1.29c-.608.236-1.52.516-3.2.593-1.816.082-2.36.1-6.96.1-4.601 0-5.146-.018-6.962-.1-1.68-.077-2.592-.357-3.199-.594a5.705 5.705 0 0 1-3.269-3.27c-.236-.606-.516-1.518-.593-3.197-.083-1.817-.1-2.362-.1-6.962s.017-5.144.1-6.96c.076-1.68.357-2.593.593-3.2zM30 38.846a8.846 8.846 0 1 0 0-17.692 8.846 8.846 0 1 0 0 17.692zm-9.196-15.974a2.067 2.067 0 1 0 0-4.135 2.067 2.067 0 0 0 0 4.135z"/></g><g><path fill="#7c7c7c" d="M30 0c16.566 0 30 13.434 30 30 0 16.566-13.434 30-30 30C13.434 60 0 46.566 0 30 0 13.434 13.434 0 30 0zM12.877 37.102c.084 1.834.375 3.086.801 4.182a8.808 8.808 0 0 0 5.038 5.038c1.096.426 2.348.717 4.181.8 1.837.084 2.424.105 7.102.105 4.68 0 5.266-.02 7.103-.104 1.833-.084 3.086-.375 4.181-.801a8.44 8.44 0 0 0 3.052-1.987 8.445 8.445 0 0 0 1.987-3.051c.425-1.096.717-2.348.8-4.181.085-1.838.105-2.425.105-7.103s-.02-5.265-.104-7.102c-.084-1.834-.375-3.086-.8-4.182a8.44 8.44 0 0 0-1.988-3.05 8.44 8.44 0 0 0-3.051-1.988c-1.096-.426-2.348-.717-4.182-.8-1.837-.084-2.424-.105-7.102-.105-4.678 0-5.265.02-7.102.105-1.834.083-3.086.374-4.182.8a8.445 8.445 0 0 0-3.051 1.987 8.44 8.44 0 0 0-1.987 3.051c-.426 1.096-.717 2.348-.801 4.182-.084 1.837-.104 2.424-.104 7.102 0 4.678.02 5.265.104 7.102z"/></g></g></g></svg>