<svg xmlns="http://www.w3.org/2000/svg" width="178" height="153" viewBox="0 0 178 153"><defs><clipPath id="3amsa"><path fill="#fff" d="M120 93c0 33.137-26.863 60-60 60S0 126.137 0 93s26.863-60 60-60 60 26.863 60 60z"/></clipPath></defs><g><g><g><path fill="#f90" d="M120 93c0 33.137-26.863 60-60 60S0 126.137 0 93s26.863-60 60-60 60 26.863 60 60z"/><path fill="none" stroke="#f90" stroke-miterlimit="20" stroke-width="2" d="M120 93c0 33.137-26.863 60-60 60S0 126.137 0 93s26.863-60 60-60 60 26.863 60 60z" clip-path="url(&quot;#3amsa&quot;)"/></g><g><g/><g><path d="M130 63c0 8.837-7.163 16-16 16s-16-7.163-16-16 7.163-16 16-16 16 7.163 16 16zm-16 18c9.941 0 18-8.059 18-18s-8.059-18-18-18-18 8.059-18 18 8.059 18 18 18z"/></g><g><path d="M121.826 5.04a10.36 10.36 0 0 1 3.034 7.326v.515a10.378 10.378 0 0 0 6.285 9.495 10.378 10.378 0 0 0 11.441-2.078l.35-.349a10.361 10.361 0 0 1 14.66 0 10.349 10.349 0 0 1 2.249 11.298 10.361 10.361 0 0 1-2.249 3.363l-.341.341-.008.008a10.376 10.376 0 0 0-2.16 11.248v.248c0 .136.027.27.081.395a10.377 10.377 0 0 0 9.496 6.29h.97a10.36 10.36 0 1 1 0 20.72h-.515a10.38 10.38 0 0 0-9.495 6.284 10.378 10.378 0 0 0 2.078 11.442l.349.35a10.375 10.375 0 0 1 3.039 7.33 10.37 10.37 0 0 1-3.039 7.33h-.001a10.347 10.347 0 0 1-7.33 3.039 10.349 10.349 0 0 1-7.33-3.039l-.341-.341-.008-.008a10.376 10.376 0 0 0-11.442-2.077 10.373 10.373 0 0 0-6.284 9.494v.97a10.36 10.36 0 1 1-20.721 0v-.535a10.38 10.38 0 0 0-6.763-9.485 10.378 10.378 0 0 0-11.417 2.088l-.35.349a10.375 10.375 0 0 1-7.33 3.039 10.368 10.368 0 0 1-7.33-3.039v-.001a10.364 10.364 0 0 1-2.25-11.297 10.364 10.364 0 0 1 2.25-3.363l.34-.341.009-.008a10.377 10.377 0 0 0 2.077-11.442 10.378 10.378 0 0 0-9.494-6.284h-.97a10.36 10.36 0 0 1 0-20.721h.535a10.377 10.377 0 0 0 9.485-6.763 10.378 10.378 0 0 0-2.088-11.417l-.349-.35a10.36 10.36 0 0 1 0-14.66 10.36 10.36 0 0 1 14.661 0l.341.34.008.009a10.377 10.377 0 0 0 11.248 2.16h.248c.136 0 .27-.027.395-.08a10.377 10.377 0 0 0 6.29-9.497v-.97a10.36 10.36 0 0 1 17.686-7.326zm-19.692 7.326v.964a8.372 8.372 0 0 1-4.89 7.578H97c-.14 0-.278.03-.405.086a8.372 8.372 0 0 1-9.23-1.671l-.338-.337a12.365 12.365 0 0 0-17.496 0 12.365 12.365 0 0 0 0 17.497l.336.337a8.372 8.372 0 0 1 1.647 9.29 8.372 8.372 0 0 1-7.65 5.479h-.5a12.366 12.366 0 0 0 0 24.731h.964a8.372 8.372 0 0 1 7.66 5.074l.005.01a8.372 8.372 0 0 1-1.675 9.235l-.333.333a12.365 12.365 0 0 0 0 17.496 12.356 12.356 0 0 0 8.749 3.627 12.372 12.372 0 0 0 8.748-3.627l.333-.333.004-.003a8.377 8.377 0 0 1 4.357-2.25 8.379 8.379 0 0 1 4.873.579l.027.011.032.013a8.368 8.368 0 0 1 5.48 7.65v.499a12.365 12.365 0 1 0 24.731 0v-.964a8.372 8.372 0 0 1 5.074-7.659l.01-.005a8.379 8.379 0 0 1 9.23 1.671l.005.004.333.333a12.37 12.37 0 0 0 20.18-4.013 12.37 12.37 0 0 0 0-9.47 12.358 12.358 0 0 0-2.684-4.014l-.333-.333a8.382 8.382 0 0 1-2.253-4.36 8.38 8.38 0 0 1 .579-4.874l.004-.01a8.367 8.367 0 0 1 7.66-5.074h.509a12.365 12.365 0 1 0 0-24.732h-.964a8.372 8.372 0 0 1-7.578-4.89V46a.991.991 0 0 0-.086-.405 8.379 8.379 0 0 1 1.671-9.23l.004-.005.333-.332a12.37 12.37 0 0 0-4.013-20.18 12.364 12.364 0 0 0-13.484 2.683l-.333.333-.004.003a8.371 8.371 0 0 1-9.23 1.671l-.01-.004a8.372 8.372 0 0 1-5.074-7.66v-.51a12.366 12.366 0 1 0-24.732 0zm-15.106 6.62z"/></g></g></g></g></svg>