<svg xmlns="http://www.w3.org/2000/svg" width="60" height="60" viewBox="0 0 60 60"><g><g><g><path fill="#7c7c7c" d="M60 30c0 16.569-13.432 30-30 30C13.432 60 0 46.569 0 30 0 13.431 13.432 0 30 0c16.568 0 30 13.431 30 30zm-15.108-.119c1.106-1.55 2.297-3.04 3.414-4.585 1.043-1.443 2.109-2.881 2.658-4.609.348-1.1.04-1.584-1.088-1.777a3.474 3.474 0 0 0-.592-.035l-6.687-.008c-.824-.013-1.278.347-1.57 1.076-.393.987-.797 1.972-1.266 2.924-1.063 2.16-2.25 4.245-3.914 6.012-.367.389-.773.881-1.386.678-.766-.279-.994-1.543-.98-1.97l-.007-7.717c-.148-1.102-.394-1.593-1.488-1.808l-6.944.001c-.928 0-1.392.359-1.887.938-.286.335-.372.553.215.664 1.152.218 1.802.965 1.974 2.12.277 1.847.257 3.701.098 5.555-.047.542-.14 1.082-.354 1.587-.336.795-.879.956-1.59.468-.646-.443-1.099-1.068-1.543-1.694-1.665-2.354-2.994-4.891-4.078-7.558-.313-.77-.854-1.238-1.67-1.25a171.237 171.237 0 0 0-6.018.001c-1.207.023-1.567.609-1.075 1.703 2.184 4.86 4.616 9.584 7.79 13.887 1.63 2.208 3.502 4.158 5.919 5.54 2.74 1.567 5.688 2.038 8.795 1.892 1.454-.068 1.891-.446 1.958-1.895.047-.992.158-1.979.648-2.87.48-.875 1.208-1.042 2.046-.497.42.272.772.618 1.106.985.819.894 1.608 1.818 2.458 2.683 1.065 1.085 2.328 1.725 3.915 1.594l6.146.001c.99-.066 1.504-1.278.935-2.383-.4-.776-.923-1.465-1.48-2.131-1.255-1.507-2.734-2.793-4.132-4.158-1.262-1.232-1.343-1.946-.326-3.364z"/></g></g></g></svg>